<svg width="110" height="110" viewBox="0 0 110 110" fill="none" xmlns="http://www.w3.org/2000/svg">
<path d="M41.25 100.833H68.75C91.6667 100.833 100.833 91.6667 100.833 68.75V41.25C100.833 18.3333 91.6667 9.16667 68.75 9.16667H41.25C18.3333 9.16667 9.16666 18.3333 9.16666 41.25V68.75C9.16666 91.6667 18.3333 100.833 41.25 100.833Z" stroke="#C186F0" stroke-width="1.5" stroke-linecap="round" stroke-linejoin="round"/>
<path d="M41.25 45.8333C46.3126 45.8333 50.4167 41.7293 50.4167 36.6667C50.4167 31.6041 46.3126 27.5 41.25 27.5C36.1874 27.5 32.0833 31.6041 32.0833 36.6667C32.0833 41.7293 36.1874 45.8333 41.25 45.8333Z" stroke="#C186F0" stroke-width="1.5" stroke-linecap="round" stroke-linejoin="round"/>
<path d="M12.2375 86.8542L34.8333 71.6833C38.4542 69.2542 43.6792 69.5292 46.9333 72.325L48.4458 73.6542C52.0208 76.725 57.7958 76.725 61.3708 73.6542L80.4375 57.2917C84.0125 54.2208 89.7875 54.2208 93.3625 57.2917L100.833 63.7083" stroke="#C186F0" stroke-width="1.5" stroke-linecap="round" stroke-linejoin="round"/>
</svg>
